<mxfile host="app.diagrams.net" agent="Mozilla/5.0 (Windows NT 10.0; Win64; x64) AppleWebKit/537.36 (KHTML, like Gecko) Chrome/135.0.0.0 Safari/537.36" version="26.3.0">
  <diagram id="R2lEEEUBdFMjLlhIrx00" name="Page-1">
    <mxGraphModel dx="2276" dy="743" grid="1" gridSize="10" guides="1" tooltips="1" connect="1" arrows="1" fold="1" page="1" pageScale="1" pageWidth="850" pageHeight="1100" math="0" shadow="0" extFonts="Permanent Marker^https://fonts.googleapis.com/css?family=Permanent+Marker">
      <root>
        <mxCell id="0" />
        <mxCell id="1" parent="0" />
        <mxCell id="A8Vfen6cLgaveDBtReLD-6" style="rounded=0;orthogonalLoop=1;jettySize=auto;html=1;endArrow=none;startFill=0;fontSize=15;" parent="1" source="A8Vfen6cLgaveDBtReLD-1" target="A8Vfen6cLgaveDBtReLD-5" edge="1">
          <mxGeometry relative="1" as="geometry" />
        </mxCell>
        <mxCell id="A8Vfen6cLgaveDBtReLD-7" value="T" style="edgeLabel;html=1;align=center;verticalAlign=middle;resizable=0;points=[];fontSize=15;" parent="A8Vfen6cLgaveDBtReLD-6" vertex="1" connectable="0">
          <mxGeometry x="0.2333" y="3" relative="1" as="geometry">
            <mxPoint x="13" y="-13" as="offset" />
          </mxGeometry>
        </mxCell>
        <mxCell id="xvJXgsmk1-agdVRjxtYN-5" style="rounded=0;orthogonalLoop=1;jettySize=auto;html=1;endArrow=none;startFill=0;fontSize=15;" parent="1" source="A8Vfen6cLgaveDBtReLD-1" target="xvJXgsmk1-agdVRjxtYN-1" edge="1">
          <mxGeometry relative="1" as="geometry" />
        </mxCell>
        <mxCell id="xvJXgsmk1-agdVRjxtYN-10" value="1" style="edgeLabel;html=1;align=center;verticalAlign=middle;resizable=0;points=[];fontSize=15;" parent="xvJXgsmk1-agdVRjxtYN-5" vertex="1" connectable="0">
          <mxGeometry x="-0.6642" y="1" relative="1" as="geometry">
            <mxPoint y="-7" as="offset" />
          </mxGeometry>
        </mxCell>
        <mxCell id="A8Vfen6cLgaveDBtReLD-1" value="Usuario" style="rounded=0;whiteSpace=wrap;html=1;fontSize=15;" parent="1" vertex="1">
          <mxGeometry x="-77" y="990" width="120" height="60" as="geometry" />
        </mxCell>
        <mxCell id="A8Vfen6cLgaveDBtReLD-13" style="rounded=0;orthogonalLoop=1;jettySize=auto;html=1;endArrow=none;startFill=0;fontSize=15;" parent="1" source="A8Vfen6cLgaveDBtReLD-2" target="A8Vfen6cLgaveDBtReLD-5" edge="1">
          <mxGeometry relative="1" as="geometry" />
        </mxCell>
        <mxCell id="A8Vfen6cLgaveDBtReLD-43" style="rounded=0;orthogonalLoop=1;jettySize=auto;html=1;endArrow=none;startFill=0;fontSize=15;" parent="1" source="A8Vfen6cLgaveDBtReLD-2" target="A8Vfen6cLgaveDBtReLD-42" edge="1">
          <mxGeometry relative="1" as="geometry" />
        </mxCell>
        <mxCell id="A8Vfen6cLgaveDBtReLD-45" value="(0,n)" style="edgeLabel;html=1;align=center;verticalAlign=middle;resizable=0;points=[];fontSize=15;" parent="A8Vfen6cLgaveDBtReLD-43" vertex="1" connectable="0">
          <mxGeometry x="-0.7286" y="1" relative="1" as="geometry">
            <mxPoint x="11" y="-7" as="offset" />
          </mxGeometry>
        </mxCell>
        <mxCell id="A8Vfen6cLgaveDBtReLD-73" style="rounded=0;orthogonalLoop=1;jettySize=auto;html=1;endArrow=none;startFill=0;fontSize=15;" parent="1" source="A8Vfen6cLgaveDBtReLD-2" target="A8Vfen6cLgaveDBtReLD-72" edge="1">
          <mxGeometry relative="1" as="geometry" />
        </mxCell>
        <mxCell id="A8Vfen6cLgaveDBtReLD-78" value="(0,n)" style="edgeLabel;html=1;align=center;verticalAlign=middle;resizable=0;points=[];fontSize=15;" parent="A8Vfen6cLgaveDBtReLD-73" vertex="1" connectable="0">
          <mxGeometry x="-0.5396" relative="1" as="geometry">
            <mxPoint x="5" y="-13" as="offset" />
          </mxGeometry>
        </mxCell>
        <mxCell id="A8Vfen6cLgaveDBtReLD-105" style="rounded=0;orthogonalLoop=1;jettySize=auto;html=1;endArrow=none;startFill=0;fontSize=15;" parent="1" source="A8Vfen6cLgaveDBtReLD-2" target="A8Vfen6cLgaveDBtReLD-104" edge="1">
          <mxGeometry relative="1" as="geometry" />
        </mxCell>
        <mxCell id="A8Vfen6cLgaveDBtReLD-109" value="(0,n)" style="edgeLabel;html=1;align=center;verticalAlign=middle;resizable=0;points=[];fontSize=15;" parent="A8Vfen6cLgaveDBtReLD-105" vertex="1" connectable="0">
          <mxGeometry x="-0.8638" y="-2" relative="1" as="geometry">
            <mxPoint x="47" y="17" as="offset" />
          </mxGeometry>
        </mxCell>
        <mxCell id="sGDHOcKBUY9BRjNUyKzA-4" style="rounded=0;orthogonalLoop=1;jettySize=auto;html=1;endArrow=none;startFill=0;" edge="1" parent="1" source="A8Vfen6cLgaveDBtReLD-2" target="sGDHOcKBUY9BRjNUyKzA-3">
          <mxGeometry relative="1" as="geometry" />
        </mxCell>
        <mxCell id="sGDHOcKBUY9BRjNUyKzA-6" value="&lt;font style=&quot;font-size: 15px;&quot;&gt;(o,n)&lt;/font&gt;" style="edgeLabel;html=1;align=center;verticalAlign=middle;resizable=0;points=[];" vertex="1" connectable="0" parent="sGDHOcKBUY9BRjNUyKzA-4">
          <mxGeometry x="-0.8265" y="2" relative="1" as="geometry">
            <mxPoint x="-1" as="offset" />
          </mxGeometry>
        </mxCell>
        <mxCell id="A8Vfen6cLgaveDBtReLD-2" value="Hospede" style="rounded=0;whiteSpace=wrap;html=1;fontSize=15;" parent="1" vertex="1">
          <mxGeometry x="-300" y="450" width="120" height="60" as="geometry" />
        </mxCell>
        <mxCell id="A8Vfen6cLgaveDBtReLD-12" style="rounded=0;orthogonalLoop=1;jettySize=auto;html=1;endArrow=none;startFill=0;fontSize=15;" parent="1" source="A8Vfen6cLgaveDBtReLD-3" target="A8Vfen6cLgaveDBtReLD-5" edge="1">
          <mxGeometry relative="1" as="geometry" />
        </mxCell>
        <mxCell id="A8Vfen6cLgaveDBtReLD-22" style="rounded=0;orthogonalLoop=1;jettySize=auto;html=1;endArrow=none;startFill=0;fontSize=15;" parent="1" source="A8Vfen6cLgaveDBtReLD-3" target="A8Vfen6cLgaveDBtReLD-20" edge="1">
          <mxGeometry relative="1" as="geometry" />
        </mxCell>
        <mxCell id="A8Vfen6cLgaveDBtReLD-25" value="1" style="edgeLabel;html=1;align=center;verticalAlign=middle;resizable=0;points=[];fontSize=15;" parent="A8Vfen6cLgaveDBtReLD-22" vertex="1" connectable="0">
          <mxGeometry x="-0.4286" relative="1" as="geometry">
            <mxPoint x="10" y="-10" as="offset" />
          </mxGeometry>
        </mxCell>
        <mxCell id="sGDHOcKBUY9BRjNUyKzA-5" style="rounded=0;orthogonalLoop=1;jettySize=auto;html=1;endArrow=none;startFill=0;" edge="1" parent="1" source="A8Vfen6cLgaveDBtReLD-3" target="sGDHOcKBUY9BRjNUyKzA-3">
          <mxGeometry relative="1" as="geometry" />
        </mxCell>
        <mxCell id="sGDHOcKBUY9BRjNUyKzA-7" value="&lt;font style=&quot;font-size: 15px;&quot;&gt;(o,n)&lt;/font&gt;" style="edgeLabel;html=1;align=center;verticalAlign=middle;resizable=0;points=[];" vertex="1" connectable="0" parent="sGDHOcKBUY9BRjNUyKzA-5">
          <mxGeometry x="-0.877" y="-2" relative="1" as="geometry">
            <mxPoint as="offset" />
          </mxGeometry>
        </mxCell>
        <mxCell id="A8Vfen6cLgaveDBtReLD-3" value="Proprietario" style="rounded=0;whiteSpace=wrap;html=1;fontSize=15;" parent="1" vertex="1">
          <mxGeometry x="520" y="710" width="120" height="60" as="geometry" />
        </mxCell>
        <mxCell id="A8Vfen6cLgaveDBtReLD-10" style="rounded=0;orthogonalLoop=1;jettySize=auto;html=1;endArrow=none;startFill=0;fontSize=15;" parent="1" source="A8Vfen6cLgaveDBtReLD-4" target="A8Vfen6cLgaveDBtReLD-5" edge="1">
          <mxGeometry relative="1" as="geometry">
            <mxPoint x="200" y="180" as="sourcePoint" />
          </mxGeometry>
        </mxCell>
        <mxCell id="A8Vfen6cLgaveDBtReLD-80" style="rounded=0;orthogonalLoop=1;jettySize=auto;html=1;endArrow=none;startFill=0;fontSize=15;" parent="1" source="A8Vfen6cLgaveDBtReLD-4" target="A8Vfen6cLgaveDBtReLD-79" edge="1">
          <mxGeometry relative="1" as="geometry" />
        </mxCell>
        <mxCell id="A8Vfen6cLgaveDBtReLD-113" value="(0,1)" style="edgeLabel;html=1;align=center;verticalAlign=middle;resizable=0;points=[];fontSize=15;" parent="A8Vfen6cLgaveDBtReLD-80" vertex="1" connectable="0">
          <mxGeometry x="-0.68" y="3" relative="1" as="geometry">
            <mxPoint y="-7" as="offset" />
          </mxGeometry>
        </mxCell>
        <mxCell id="A8Vfen6cLgaveDBtReLD-4" value="Administrador" style="rounded=0;whiteSpace=wrap;html=1;fontSize=15;" parent="1" vertex="1">
          <mxGeometry x="520" y="820" width="120" height="60" as="geometry" />
        </mxCell>
        <mxCell id="A8Vfen6cLgaveDBtReLD-5" value="" style="triangle;whiteSpace=wrap;html=1;direction=south;fontSize=15;" parent="1" vertex="1">
          <mxGeometry x="-57" y="805" width="80" height="50" as="geometry" />
        </mxCell>
        <mxCell id="A8Vfen6cLgaveDBtReLD-15" value="Servico" style="rounded=0;whiteSpace=wrap;html=1;fontSize=15;" parent="1" vertex="1">
          <mxGeometry x="150" y="340" width="120" height="60" as="geometry" />
        </mxCell>
        <mxCell id="A8Vfen6cLgaveDBtReLD-30" style="rounded=0;orthogonalLoop=1;jettySize=auto;html=1;endArrow=none;startFill=0;fontSize=15;" parent="1" source="A8Vfen6cLgaveDBtReLD-16" target="A8Vfen6cLgaveDBtReLD-28" edge="1">
          <mxGeometry relative="1" as="geometry" />
        </mxCell>
        <mxCell id="A8Vfen6cLgaveDBtReLD-49" value="1" style="edgeLabel;html=1;align=center;verticalAlign=middle;resizable=0;points=[];fontSize=15;" parent="A8Vfen6cLgaveDBtReLD-30" vertex="1" connectable="0">
          <mxGeometry x="-0.5" y="1" relative="1" as="geometry">
            <mxPoint y="-11" as="offset" />
          </mxGeometry>
        </mxCell>
        <mxCell id="A8Vfen6cLgaveDBtReLD-52" style="rounded=0;orthogonalLoop=1;jettySize=auto;html=1;endArrow=none;startFill=0;fontSize=15;" parent="1" source="A8Vfen6cLgaveDBtReLD-16" target="A8Vfen6cLgaveDBtReLD-51" edge="1">
          <mxGeometry relative="1" as="geometry" />
        </mxCell>
        <mxCell id="A8Vfen6cLgaveDBtReLD-55" value="1" style="edgeLabel;html=1;align=center;verticalAlign=middle;resizable=0;points=[];fontSize=15;" parent="A8Vfen6cLgaveDBtReLD-52" vertex="1" connectable="0">
          <mxGeometry x="-0.5333" y="3" relative="1" as="geometry">
            <mxPoint x="-4" y="-17" as="offset" />
          </mxGeometry>
        </mxCell>
        <mxCell id="A8Vfen6cLgaveDBtReLD-70" style="rounded=0;orthogonalLoop=1;jettySize=auto;html=1;endArrow=none;startFill=0;fontSize=15;" parent="1" source="A8Vfen6cLgaveDBtReLD-16" target="A8Vfen6cLgaveDBtReLD-69" edge="1">
          <mxGeometry relative="1" as="geometry" />
        </mxCell>
        <mxCell id="A8Vfen6cLgaveDBtReLD-75" value="1" style="edgeLabel;html=1;align=center;verticalAlign=middle;resizable=0;points=[];fontSize=15;" parent="A8Vfen6cLgaveDBtReLD-70" vertex="1" connectable="0">
          <mxGeometry x="-0.6216" y="-1" relative="1" as="geometry">
            <mxPoint y="-11" as="offset" />
          </mxGeometry>
        </mxCell>
        <mxCell id="A8Vfen6cLgaveDBtReLD-16" value="Imoveis" style="rounded=0;whiteSpace=wrap;html=1;fontSize=15;" parent="1" vertex="1">
          <mxGeometry x="520" y="450" width="120" height="60" as="geometry" />
        </mxCell>
        <mxCell id="A8Vfen6cLgaveDBtReLD-17" value="Quartos" style="rounded=0;whiteSpace=wrap;html=1;fontSize=15;" parent="1" vertex="1">
          <mxGeometry x="150" y="450" width="120" height="60" as="geometry" />
        </mxCell>
        <mxCell id="A8Vfen6cLgaveDBtReLD-18" value="Area" style="rounded=0;whiteSpace=wrap;html=1;fontSize=15;" parent="1" vertex="1">
          <mxGeometry x="870" y="450" width="120" height="60" as="geometry" />
        </mxCell>
        <mxCell id="A8Vfen6cLgaveDBtReLD-23" style="rounded=0;orthogonalLoop=1;jettySize=auto;html=1;endArrow=none;startFill=0;fontSize=15;" parent="1" source="A8Vfen6cLgaveDBtReLD-20" target="A8Vfen6cLgaveDBtReLD-16" edge="1">
          <mxGeometry relative="1" as="geometry" />
        </mxCell>
        <mxCell id="A8Vfen6cLgaveDBtReLD-24" value="(0,n)" style="edgeLabel;html=1;align=center;verticalAlign=middle;resizable=0;points=[];fontSize=15;" parent="A8Vfen6cLgaveDBtReLD-23" vertex="1" connectable="0">
          <mxGeometry x="0.6286" relative="1" as="geometry">
            <mxPoint x="20" as="offset" />
          </mxGeometry>
        </mxCell>
        <mxCell id="A8Vfen6cLgaveDBtReLD-20" value="Tem" style="shape=rhombus;perimeter=rhombusPerimeter;whiteSpace=wrap;html=1;align=center;fontSize=15;" parent="1" vertex="1">
          <mxGeometry x="520" y="580" width="120" height="60" as="geometry" />
        </mxCell>
        <mxCell id="A8Vfen6cLgaveDBtReLD-29" style="rounded=0;orthogonalLoop=1;jettySize=auto;html=1;endArrow=none;startFill=0;fontSize=15;" parent="1" source="A8Vfen6cLgaveDBtReLD-28" target="A8Vfen6cLgaveDBtReLD-17" edge="1">
          <mxGeometry relative="1" as="geometry" />
        </mxCell>
        <mxCell id="A8Vfen6cLgaveDBtReLD-50" value="(1,n)" style="edgeLabel;html=1;align=center;verticalAlign=middle;resizable=0;points=[];fontSize=15;" parent="A8Vfen6cLgaveDBtReLD-29" vertex="1" connectable="0">
          <mxGeometry x="0.4286" relative="1" as="geometry">
            <mxPoint y="-10" as="offset" />
          </mxGeometry>
        </mxCell>
        <mxCell id="A8Vfen6cLgaveDBtReLD-28" value="Possui" style="shape=rhombus;perimeter=rhombusPerimeter;whiteSpace=wrap;html=1;align=center;fontSize=15;" parent="1" vertex="1">
          <mxGeometry x="330" y="450" width="120" height="60" as="geometry" />
        </mxCell>
        <mxCell id="A8Vfen6cLgaveDBtReLD-44" style="rounded=0;orthogonalLoop=1;jettySize=auto;html=1;endArrow=none;startFill=0;fontSize=15;" parent="1" source="A8Vfen6cLgaveDBtReLD-42" target="A8Vfen6cLgaveDBtReLD-17" edge="1">
          <mxGeometry relative="1" as="geometry" />
        </mxCell>
        <mxCell id="A8Vfen6cLgaveDBtReLD-46" value="(0,n)" style="edgeLabel;html=1;align=center;verticalAlign=middle;resizable=0;points=[];fontSize=15;" parent="A8Vfen6cLgaveDBtReLD-44" vertex="1" connectable="0">
          <mxGeometry x="0.7571" y="1" relative="1" as="geometry">
            <mxPoint x="-12" y="-9" as="offset" />
          </mxGeometry>
        </mxCell>
        <mxCell id="A8Vfen6cLgaveDBtReLD-42" value="Reserva" style="shape=rhombus;perimeter=rhombusPerimeter;whiteSpace=wrap;html=1;align=center;fontSize=15;" parent="1" vertex="1">
          <mxGeometry x="-60" y="450" width="120" height="60" as="geometry" />
        </mxCell>
        <mxCell id="xvJXgsmk1-agdVRjxtYN-3" style="rounded=0;orthogonalLoop=1;jettySize=auto;html=1;endArrow=none;startFill=0;fontSize=15;" parent="1" source="A8Vfen6cLgaveDBtReLD-47" target="xvJXgsmk1-agdVRjxtYN-1" edge="1">
          <mxGeometry relative="1" as="geometry" />
        </mxCell>
        <mxCell id="xvJXgsmk1-agdVRjxtYN-12" value="(0,n)" style="edgeLabel;html=1;align=center;verticalAlign=middle;resizable=0;points=[];fontSize=15;" parent="xvJXgsmk1-agdVRjxtYN-3" vertex="1" connectable="0">
          <mxGeometry x="-0.6411" relative="1" as="geometry">
            <mxPoint y="-20" as="offset" />
          </mxGeometry>
        </mxCell>
        <mxCell id="xvJXgsmk1-agdVRjxtYN-6" style="rounded=0;orthogonalLoop=1;jettySize=auto;html=1;endArrow=none;startFill=0;fontSize=15;" parent="1" source="A8Vfen6cLgaveDBtReLD-47" target="xvJXgsmk1-agdVRjxtYN-2" edge="1">
          <mxGeometry relative="1" as="geometry" />
        </mxCell>
        <mxCell id="xvJXgsmk1-agdVRjxtYN-8" value="(0,n)" style="edgeLabel;html=1;align=center;verticalAlign=middle;resizable=0;points=[];fontSize=15;" parent="xvJXgsmk1-agdVRjxtYN-6" vertex="1" connectable="0">
          <mxGeometry x="-0.4996" y="-1" relative="1" as="geometry">
            <mxPoint y="-17" as="offset" />
          </mxGeometry>
        </mxCell>
        <mxCell id="A8Vfen6cLgaveDBtReLD-47" value="Denuncia" style="rounded=0;whiteSpace=wrap;html=1;fontSize=15;" parent="1" vertex="1">
          <mxGeometry x="283" y="980" width="120" height="60" as="geometry" />
        </mxCell>
        <mxCell id="A8Vfen6cLgaveDBtReLD-53" style="rounded=0;orthogonalLoop=1;jettySize=auto;html=1;endArrow=none;startFill=0;fontSize=15;" parent="1" source="A8Vfen6cLgaveDBtReLD-51" target="A8Vfen6cLgaveDBtReLD-18" edge="1">
          <mxGeometry relative="1" as="geometry" />
        </mxCell>
        <mxCell id="A8Vfen6cLgaveDBtReLD-54" value="(0,n)" style="edgeLabel;html=1;align=center;verticalAlign=middle;resizable=0;points=[];fontSize=15;" parent="A8Vfen6cLgaveDBtReLD-53" vertex="1" connectable="0">
          <mxGeometry x="0.6" y="2" relative="1" as="geometry">
            <mxPoint x="-8" y="-8" as="offset" />
          </mxGeometry>
        </mxCell>
        <mxCell id="A8Vfen6cLgaveDBtReLD-51" value="Possui" style="shape=rhombus;perimeter=rhombusPerimeter;whiteSpace=wrap;html=1;align=center;fontSize=15;" parent="1" vertex="1">
          <mxGeometry x="700" y="450" width="120" height="60" as="geometry" />
        </mxCell>
        <mxCell id="A8Vfen6cLgaveDBtReLD-57" style="rounded=0;orthogonalLoop=1;jettySize=auto;html=1;endArrow=none;startFill=0;entryX=0;entryY=0;entryDx=0;entryDy=0;fontSize=15;" parent="1" source="A8Vfen6cLgaveDBtReLD-56" target="A8Vfen6cLgaveDBtReLD-16" edge="1">
          <mxGeometry relative="1" as="geometry" />
        </mxCell>
        <mxCell id="A8Vfen6cLgaveDBtReLD-60" value="1" style="edgeLabel;html=1;align=center;verticalAlign=middle;resizable=0;points=[];fontSize=15;" parent="A8Vfen6cLgaveDBtReLD-57" vertex="1" connectable="0">
          <mxGeometry x="0.65" relative="1" as="geometry">
            <mxPoint x="-2" y="-19" as="offset" />
          </mxGeometry>
        </mxCell>
        <mxCell id="A8Vfen6cLgaveDBtReLD-58" style="rounded=0;orthogonalLoop=1;jettySize=auto;html=1;endArrow=none;startFill=0;fontSize=15;" parent="1" source="A8Vfen6cLgaveDBtReLD-56" target="A8Vfen6cLgaveDBtReLD-15" edge="1">
          <mxGeometry relative="1" as="geometry">
            <mxPoint x="160" y="560" as="sourcePoint" />
          </mxGeometry>
        </mxCell>
        <mxCell id="A8Vfen6cLgaveDBtReLD-61" value="(0,n)" style="edgeLabel;html=1;align=center;verticalAlign=middle;resizable=0;points=[];fontSize=15;" parent="A8Vfen6cLgaveDBtReLD-58" vertex="1" connectable="0">
          <mxGeometry x="0.6" y="-1" relative="1" as="geometry">
            <mxPoint x="12" y="-9" as="offset" />
          </mxGeometry>
        </mxCell>
        <mxCell id="A8Vfen6cLgaveDBtReLD-56" value="Oferece" style="shape=rhombus;perimeter=rhombusPerimeter;whiteSpace=wrap;html=1;align=center;fontSize=15;" parent="1" vertex="1">
          <mxGeometry x="330" y="340" width="120" height="60" as="geometry" />
        </mxCell>
        <mxCell id="A8Vfen6cLgaveDBtReLD-63" style="rounded=0;orthogonalLoop=1;jettySize=auto;html=1;endArrow=none;startFill=0;exitX=0;exitY=0.5;exitDx=0;exitDy=0;fontSize=15;" parent="1" source="A8Vfen6cLgaveDBtReLD-62" target="A8Vfen6cLgaveDBtReLD-2" edge="1">
          <mxGeometry relative="1" as="geometry" />
        </mxCell>
        <mxCell id="A8Vfen6cLgaveDBtReLD-65" value="(0,n)" style="edgeLabel;html=1;align=center;verticalAlign=middle;resizable=0;points=[];fontSize=15;" parent="A8Vfen6cLgaveDBtReLD-63" vertex="1" connectable="0">
          <mxGeometry x="0.7" y="-1" relative="1" as="geometry">
            <mxPoint x="19" y="-17" as="offset" />
          </mxGeometry>
        </mxCell>
        <mxCell id="A8Vfen6cLgaveDBtReLD-64" style="rounded=0;orthogonalLoop=1;jettySize=auto;html=1;exitX=1;exitY=0.5;exitDx=0;exitDy=0;endArrow=none;startFill=0;fontSize=15;" parent="1" source="A8Vfen6cLgaveDBtReLD-62" target="A8Vfen6cLgaveDBtReLD-15" edge="1">
          <mxGeometry relative="1" as="geometry" />
        </mxCell>
        <mxCell id="A8Vfen6cLgaveDBtReLD-66" value="(0,n)" style="edgeLabel;html=1;align=center;verticalAlign=middle;resizable=0;points=[];fontSize=15;" parent="A8Vfen6cLgaveDBtReLD-64" vertex="1" connectable="0">
          <mxGeometry x="0.5143" y="1" relative="1" as="geometry">
            <mxPoint x="-3" y="-9" as="offset" />
          </mxGeometry>
        </mxCell>
        <mxCell id="A8Vfen6cLgaveDBtReLD-62" value="Solicita" style="shape=rhombus;perimeter=rhombusPerimeter;whiteSpace=wrap;html=1;align=center;direction=east;fontSize=15;" parent="1" vertex="1">
          <mxGeometry x="-60" y="340" width="120" height="60" as="geometry" />
        </mxCell>
        <mxCell id="A8Vfen6cLgaveDBtReLD-71" style="rounded=0;orthogonalLoop=1;jettySize=auto;html=1;endArrow=none;startFill=0;fontSize=15;" parent="1" source="A8Vfen6cLgaveDBtReLD-68" target="A8Vfen6cLgaveDBtReLD-69" edge="1">
          <mxGeometry relative="1" as="geometry" />
        </mxCell>
        <mxCell id="A8Vfen6cLgaveDBtReLD-76" value="(1,n)" style="edgeLabel;html=1;align=center;verticalAlign=middle;resizable=0;points=[];fontSize=15;" parent="A8Vfen6cLgaveDBtReLD-71" vertex="1" connectable="0">
          <mxGeometry x="-0.5278" y="1" relative="1" as="geometry">
            <mxPoint y="-9" as="offset" />
          </mxGeometry>
        </mxCell>
        <mxCell id="A8Vfen6cLgaveDBtReLD-68" value="Eventos" style="rounded=0;whiteSpace=wrap;html=1;fontSize=15;" parent="1" vertex="1">
          <mxGeometry x="150" y="560" width="120" height="60" as="geometry" />
        </mxCell>
        <mxCell id="A8Vfen6cLgaveDBtReLD-69" value="Possui" style="shape=rhombus;perimeter=rhombusPerimeter;whiteSpace=wrap;html=1;align=center;fontSize=15;" parent="1" vertex="1">
          <mxGeometry x="330" y="560" width="120" height="60" as="geometry" />
        </mxCell>
        <mxCell id="A8Vfen6cLgaveDBtReLD-74" style="rounded=0;orthogonalLoop=1;jettySize=auto;html=1;endArrow=none;startFill=0;fontSize=15;" parent="1" source="A8Vfen6cLgaveDBtReLD-72" target="A8Vfen6cLgaveDBtReLD-68" edge="1">
          <mxGeometry relative="1" as="geometry" />
        </mxCell>
        <mxCell id="A8Vfen6cLgaveDBtReLD-77" value="(0,n)" style="edgeLabel;html=1;align=center;verticalAlign=middle;resizable=0;points=[];fontSize=15;" parent="A8Vfen6cLgaveDBtReLD-74" vertex="1" connectable="0">
          <mxGeometry x="0.7407" relative="1" as="geometry">
            <mxPoint x="-8" y="-10" as="offset" />
          </mxGeometry>
        </mxCell>
        <mxCell id="A8Vfen6cLgaveDBtReLD-72" value="Cadastra" style="shape=rhombus;perimeter=rhombusPerimeter;whiteSpace=wrap;html=1;align=center;fontSize=15;" parent="1" vertex="1">
          <mxGeometry x="-60" y="560" width="120" height="60" as="geometry" />
        </mxCell>
        <mxCell id="A8Vfen6cLgaveDBtReLD-81" style="rounded=0;orthogonalLoop=1;jettySize=auto;html=1;endArrow=none;startFill=0;fontSize=15;" parent="1" source="A8Vfen6cLgaveDBtReLD-79" target="A8Vfen6cLgaveDBtReLD-47" edge="1">
          <mxGeometry relative="1" as="geometry" />
        </mxCell>
        <mxCell id="A8Vfen6cLgaveDBtReLD-112" value="(0,n)" style="edgeLabel;html=1;align=center;verticalAlign=middle;resizable=0;points=[];fontSize=15;" parent="A8Vfen6cLgaveDBtReLD-81" vertex="1" connectable="0">
          <mxGeometry x="0.7" y="-1" relative="1" as="geometry">
            <mxPoint y="-11" as="offset" />
          </mxGeometry>
        </mxCell>
        <mxCell id="A8Vfen6cLgaveDBtReLD-79" value="Valida" style="shape=rhombus;perimeter=rhombusPerimeter;whiteSpace=wrap;html=1;align=center;fontSize=15;" parent="1" vertex="1">
          <mxGeometry x="520" y="970" width="120" height="60" as="geometry" />
        </mxCell>
        <mxCell id="A8Vfen6cLgaveDBtReLD-106" style="rounded=0;orthogonalLoop=1;jettySize=auto;html=1;entryX=0.183;entryY=1.017;entryDx=0;entryDy=0;entryPerimeter=0;endArrow=none;startFill=0;fontSize=15;exitX=1;exitY=0.5;exitDx=0;exitDy=0;edgeStyle=orthogonalEdgeStyle;" parent="1" target="A8Vfen6cLgaveDBtReLD-16" edge="1" source="A8Vfen6cLgaveDBtReLD-104">
          <mxGeometry relative="1" as="geometry">
            <mxPoint x="210" y="760" as="sourcePoint" />
            <mxPoint x="480" y="510" as="targetPoint" />
            <Array as="points">
              <mxPoint x="510" y="670" />
              <mxPoint x="510" y="540" />
              <mxPoint x="542" y="540" />
            </Array>
          </mxGeometry>
        </mxCell>
        <mxCell id="A8Vfen6cLgaveDBtReLD-108" value="(0,n)" style="edgeLabel;html=1;align=center;verticalAlign=middle;resizable=0;points=[];fontSize=15;" parent="A8Vfen6cLgaveDBtReLD-106" vertex="1" connectable="0">
          <mxGeometry x="0.9392" y="-1" relative="1" as="geometry">
            <mxPoint y="9" as="offset" />
          </mxGeometry>
        </mxCell>
        <mxCell id="xvJXgsmk1-agdVRjxtYN-1" value="Faz" style="shape=rhombus;perimeter=rhombusPerimeter;whiteSpace=wrap;html=1;align=center;fontSize=15;" parent="1" vertex="1">
          <mxGeometry x="113" y="910" width="120" height="60" as="geometry" />
        </mxCell>
        <mxCell id="xvJXgsmk1-agdVRjxtYN-7" style="rounded=0;orthogonalLoop=1;jettySize=auto;html=1;endArrow=none;startFill=0;fontSize=15;" parent="1" source="xvJXgsmk1-agdVRjxtYN-2" target="A8Vfen6cLgaveDBtReLD-1" edge="1">
          <mxGeometry relative="1" as="geometry" />
        </mxCell>
        <mxCell id="xvJXgsmk1-agdVRjxtYN-9" value="1" style="edgeLabel;html=1;align=center;verticalAlign=middle;resizable=0;points=[];fontSize=15;" parent="xvJXgsmk1-agdVRjxtYN-7" vertex="1" connectable="0">
          <mxGeometry x="0.6775" y="2" relative="1" as="geometry">
            <mxPoint y="-11" as="offset" />
          </mxGeometry>
        </mxCell>
        <mxCell id="xvJXgsmk1-agdVRjxtYN-2" value="Recebe" style="shape=rhombus;perimeter=rhombusPerimeter;whiteSpace=wrap;html=1;align=center;fontSize=15;" parent="1" vertex="1">
          <mxGeometry x="113" y="1040" width="120" height="60" as="geometry" />
        </mxCell>
        <mxCell id="A8Vfen6cLgaveDBtReLD-104" value="Avalia" style="shape=rhombus;perimeter=rhombusPerimeter;whiteSpace=wrap;html=1;align=center;fontSize=15;" parent="1" vertex="1">
          <mxGeometry x="-20" y="640" width="120" height="60" as="geometry" />
        </mxCell>
        <mxCell id="sGDHOcKBUY9BRjNUyKzA-3" value="Avalia" style="shape=rhombus;perimeter=rhombusPerimeter;whiteSpace=wrap;html=1;align=center;fontSize=15;" vertex="1" parent="1">
          <mxGeometry x="-20" y="720" width="120" height="60" as="geometry" />
        </mxCell>
      </root>
    </mxGraphModel>
  </diagram>
</mxfile>
